<svg width="594" height="459" viewBox="0 0 594 459" fill="none" xmlns="http://www.w3.org/2000/svg">
<path d="M160.18 338.008L145.672 458.296H140.914L155.423 338.008H160.18Z" fill="#9FDBCF"/>
<path d="M96.0648 338.008L94.433 351.536L81.5561 458.296H76.7969L89.7389 351.008L91.3055 338.008H96.0648Z" fill="#9FDBCF"/>
<path d="M160.18 458.296H155.423L153.416 441.66L151.037 421.936L143.21 357.053L140.914 338.008H145.673L148.036 357.597L153.416 402.207L155.795 421.932L160.18 458.296Z" fill="#9FDBCF"/>
<path d="M224.291 458.296H219.532L208.271 364.932L205.023 338.008H209.783L213.093 365.451L224.291 458.296Z" fill="#9FDBCF"/>
<path d="M96.2983 257.594H91.5391V330.356H96.2983V257.594Z" fill="#9FDBCF"/>
<path d="M160.953 257.594H156.195V330.356H160.953V257.594Z" fill="#9FDBCF"/>
<path d="M211.788 330.359H146.406C148.518 330.359 150.231 332.07 150.231 334.182C150.231 336.294 148.518 338.007 146.406 338.007H211.788C213.9 338.007 215.612 336.294 215.612 334.182C215.612 332.07 213.9 330.359 211.788 330.359Z" fill="#9FDBCF"/>
<path d="M150.242 334.182C150.242 332.07 148.529 330.359 146.417 330.359H96.407H89.9649C87.853 330.359 86.1406 332.07 86.1406 334.182C86.1406 336.294 87.853 338.007 89.9649 338.007H96.407H146.417C148.529 338.007 150.242 336.294 150.242 334.182Z" fill="#57C0AC"/>
<path d="M164.848 202.836H87.6504C84.707 202.836 82.3203 205.223 82.3203 208.165V252.264C82.3203 255.207 84.707 257.594 87.6504 257.594H164.848C167.791 257.594 170.178 255.207 170.178 252.264V208.165C170.176 205.221 167.791 202.836 164.848 202.836Z" fill="#9FDBCF"/>
<path d="M96.068 338.008L94.4362 351.536C92.7167 351.342 91.1459 351.165 89.7422 351.008L91.3102 338.008H96.068Z" fill="#57C0AC"/>
<path d="M145.673 338.008L148.036 357.597C146.42 357.416 144.811 357.233 143.212 357.053L140.914 338.008H145.673Z" fill="#57C0AC"/>
<path d="M213.093 365.451C211.558 365.287 209.947 365.114 208.271 364.932H208.27L205.023 338.008H209.783L213.093 365.451Z" fill="#57C0AC"/>
<path d="M91.5312 257.586H96.2905V267.636L91.5312 267.109V257.586Z" fill="#AEC3FF"/>
<path d="M160.961 257.586V274.793L156.203 274.267V257.586H160.961Z" fill="#AEC3FF"/>
<path d="M186.786 135.915C168.245 139.006 145.143 132.105 142.246 127.711C135.534 137.94 132.123 137.62 132.123 137.62V145.292L130.607 143.776C130.14 142.718 129.398 141.67 128.287 141.67C122.182 141.67 121.756 158.65 132.031 159.632C132.234 160.298 132.443 160.919 132.657 161.482V188.66H155.833V177.971C157.391 178.398 158.884 178.643 160.255 178.643C169.393 178.643 184.963 165.207 186.728 143.775C186.833 139.731 186.786 135.915 186.786 135.915Z" fill="#FCBEB7"/>
<path d="M158.655 106.82C142.672 106.82 139.475 115.345 139.475 115.345C132.655 115.345 122.213 127.812 128.5 141.663L128.533 141.696L132.124 145.287V137.615C132.124 137.615 135.533 137.935 142.247 127.706C145.144 132.099 168.247 139 186.787 135.91C186.787 135.91 186.835 139.726 186.729 143.77C186.729 143.774 186.729 143.778 186.729 143.782C193.652 123.75 179.753 106.82 158.655 106.82Z" fill="#404142"/>
<path d="M151.771 149.618C151.064 149.618 150.492 149.046 150.492 148.339V145.951C150.492 145.244 151.064 144.672 151.771 144.672C152.478 144.672 153.05 145.244 153.05 145.951V148.339C153.049 149.046 152.477 149.618 151.771 149.618Z" fill="#311643"/>
<path d="M175.498 149.618C174.791 149.618 174.219 149.046 174.219 148.339V145.951C174.219 145.244 174.791 144.672 175.498 144.672C176.205 144.672 176.777 145.244 176.777 145.951V148.339C176.775 149.046 176.203 149.618 175.498 149.618Z" fill="#311643"/>
<path d="M161.179 164.542C158.897 164.542 157.343 163.684 156.402 162.902C155.215 161.916 154.722 160.841 154.7 160.795C154.567 160.501 154.699 160.154 154.994 160.021C155.288 159.888 155.634 160.019 155.767 160.313C155.834 160.457 157.454 163.856 162.164 163.311C162.485 163.274 162.775 163.504 162.812 163.827C162.849 164.148 162.62 164.439 162.298 164.475C161.909 164.522 161.535 164.542 161.179 164.542Z" fill="#311643"/>
<path d="M143.284 160.216C146.776 160.216 149.607 157.386 149.607 153.893C149.607 150.401 146.776 147.57 143.284 147.57C139.792 147.57 136.961 150.401 136.961 153.893C136.961 157.386 139.792 160.216 143.284 160.216Z" fill="#F49795"/>
<path d="M186.072 148.643C185.271 152.889 183.928 156.76 182.229 160.207C178.885 160.041 176.227 157.277 176.227 153.892C176.227 150.401 179.057 147.57 182.548 147.57C183.853 147.57 185.065 147.966 186.072 148.643Z" fill="#F49795"/>
<path d="M175.48 134.672C170.864 134.672 167.052 138.182 166.572 142.672C164.062 141.491 161.847 142.129 160.678 142.667C160.197 138.179 156.386 134.672 151.772 134.672C146.831 134.672 142.812 138.69 142.812 143.631C142.812 148.571 146.832 152.59 151.772 152.59C156.6 152.59 160.548 148.748 160.722 143.962C161.464 143.541 163.848 142.452 166.528 143.969C166.706 148.753 170.653 152.59 175.478 152.59C180.419 152.59 184.437 148.571 184.437 143.631C184.439 138.69 180.419 134.672 175.48 134.672ZM151.772 151.418C147.477 151.418 143.984 147.925 143.984 143.631C143.984 139.336 147.477 135.843 151.772 135.843C156.065 135.843 159.559 139.336 159.559 143.631C159.558 147.925 156.065 151.418 151.772 151.418ZM175.48 151.418C171.185 151.418 167.692 147.925 167.692 143.631C167.692 139.336 171.185 135.843 175.48 135.843C179.775 135.843 183.268 139.336 183.268 143.631C183.268 147.925 179.773 151.418 175.48 151.418Z" fill="white"/>
<path d="M155.832 188.656V177.966C150.591 176.525 144.625 172.997 140.141 169.633L155.832 188.656Z" fill="#F9AFAB"/>
<path d="M221.679 371.381L216.84 370.718L212.258 332.727H217.017L221.679 371.381Z" fill="#EBEDF4"/>
<path d="M208.83 226.211L213.032 234.268H190.633L208.83 226.211Z" fill="#FCBEB7"/>
<path d="M165.922 437.273V454.619C165.922 456.642 167.562 458.282 169.585 458.282H218.783C219.251 458.282 219.631 457.903 219.631 457.435V454.238C219.631 452.696 218.731 451.293 217.329 450.652L188.881 437.273H165.922Z" fill="#3FB7A0"/>
<path d="M165.922 427.414L165.933 437.282H188.88L190.467 427.414H165.922Z" fill="#FCBEB7"/>
<path d="M155.791 178.564L186.943 192.635C191.226 194.57 194.712 197.922 196.811 202.128L208.827 226.196L190.63 234.253L192.137 287.454H101.456L105.415 237.767L89.0156 237.873V210.687C89.0156 202.267 94.0751 194.672 101.846 191.427L132.655 178.562C132.656 178.564 146.115 187.397 155.791 178.564Z" fill="#57C0AC"/>
<path d="M162.28 181.379C157.593 185.168 151.799 187.224 145.689 187.224C139.217 187.224 132.891 184.706 128.07 180.477L127.078 180.89C132.115 185.434 138.853 188.162 145.689 188.162C152.18 188.162 158.328 185.918 163.246 181.798L162.28 181.379Z" fill="white"/>
<path d="M214.203 437.273V454.619C214.203 456.642 215.843 458.282 217.866 458.282H267.065C267.532 458.282 267.912 457.903 267.912 457.435V454.238C267.912 452.696 267.012 451.293 265.61 450.652L237.162 437.273H214.203Z" fill="#3FB7A0"/>
<path d="M214.203 427.414L214.216 437.282H237.162L238.749 427.414H214.203Z" fill="#FCBEB7"/>
<path d="M149.734 287.461V288.389C149.716 311.691 168.601 330.59 191.905 330.59H211.494L214.205 427.411H238.751L256.849 311.968C258.867 299.094 248.914 287.461 235.884 287.461H149.734Z" fill="#3FB7A0"/>
<path d="M257.112 308.739C254.999 311.831 251.442 313.861 247.412 313.861C240.923 313.861 235.664 308.602 235.664 302.113C235.664 295.882 240.515 290.784 246.646 290.391C252.976 294.122 257.146 301.032 257.112 308.739Z" fill="#57C0AC"/>
<path d="M208.832 308.281L211.502 330.592H195.43L208.832 308.281Z" fill="#57C0AC"/>
<path d="M101.453 287.461V288.389C101.435 311.691 120.32 330.59 143.623 330.59H163.213L165.924 427.411H190.469L208.567 311.968C210.586 299.094 200.632 287.461 187.602 287.461H101.453Z" fill="#3FB7A0"/>
<path d="M89.0156 237.875L89.8882 268.007C90.1247 276.15 96.7933 282.63 104.941 282.63H157.393L160.914 270.363L114.648 262.737L114.32 237.711L89.0156 237.875Z" fill="#FCBEB7"/>
<path d="M104.567 276.371C104.567 278.752 103.496 280.886 101.809 282.312C96.3867 281.166 92.0297 277.102 90.4844 271.818C91.8966 269.864 94.194 268.594 96.7889 268.594C101.086 268.594 104.567 272.075 104.567 276.371Z" fill="#F9AFAB"/>
<path d="M114.328 237.711L121.432 263.853L114.655 262.737L114.328 237.711Z" fill="#3FB7A0"/>
<path d="M154.449 269.297L146.18 282.63H157.391L160.913 270.362L154.449 269.297Z" fill="#F9AFAB"/>
<path d="M244.588 234.266H176.194C173.287 234.266 170.732 236.191 169.93 238.984L157.398 282.641H129.664C128.331 282.641 127.25 283.722 127.25 285.055C127.25 286.388 128.331 287.469 129.664 287.469H156.012H164.391H237.966L250.851 242.582C252.048 238.416 248.921 234.266 244.588 234.266Z" fill="#FFC226"/>
<path d="M208.822 308.279C206.753 311.625 203.05 313.853 198.826 313.853C192.337 313.853 187.078 308.594 187.078 302.105C187.078 295.782 192.072 290.625 198.333 290.367C204.553 294.024 208.693 300.747 208.822 308.279Z" fill="#57C0AC"/>
<path d="M209.82 262.886C209.999 260.848 209.012 259.095 207.615 258.973C206.219 258.85 204.941 260.403 204.762 262.442C204.583 264.48 205.57 266.232 206.966 266.355C208.363 266.478 209.64 264.925 209.82 262.886Z" fill="#404142"/>
<path d="M102.77 202.503C102.77 206.302 99.6897 209.383 95.8908 209.383C93.15 209.383 90.7859 207.781 89.6797 205.463C90.6514 201.708 92.6528 198.308 95.4318 195.641C95.5834 195.629 95.7364 195.625 95.8908 195.625C99.6897 195.624 102.77 198.704 102.77 202.503Z" fill="#3FB7A0"/>
<path d="M196.379 201.328C195.283 202.066 193.963 202.497 192.542 202.497C188.743 202.497 185.664 199.416 185.664 195.617C185.664 194.464 185.947 193.375 186.45 192.422L186.936 192.641C190.942 194.45 194.251 197.5 196.379 201.328Z" fill="#3FB7A0"/>
<path d="M347.03 40.8905L346.796 81.803L367.65 81.922L386.833 82.0313L388.158 82.0382L414.134 82.1855C414.134 82.1855 414.312 50.7688 414.417 32.5081C414.529 12.8634 398.74 9.35775 398.74 9.35775C398.74 9.35775 393.044 0.0957008 376.319 0.000799239C356.194 -0.113932 342.704 12.1383 342.618 27.3551C342.579 34.3438 345.394 38.8593 347.03 40.8905ZM347.408 34.1029C349.956 33.5434 357.147 27.2801 357.184 20.8155C362.732 30.1116 379.774 43.5407 405.272 35.5491V35.5505C405.352 35.5392 405.431 35.5321 405.515 35.5336C411.57 35.5675 411.896 52.4105 401.7 53.3255C401.547 53.8184 401.39 54.2873 401.23 54.7264L401.074 82.1118L378.089 81.9801L378.15 71.3357C376.545 71.7776 375.009 72.0296 373.602 72.0211C364.095 71.9687 347.653 57.2079 347.408 34.1029Z" fill="#404142"/>
<path d="M378.14 72.8L378.149 71.3341C376.544 71.776 375.007 72.028 373.601 72.0195C364.093 71.9656 347.651 57.2049 347.406 34.0999C349.954 33.5404 357.146 27.2771 357.182 20.8125C362.731 30.1086 379.772 43.5377 405.271 35.5461V35.5475C405.35 35.5362 405.429 35.5291 405.513 35.5306C411.568 35.5645 411.894 52.4075 401.698 53.3225C401.545 53.8154 401.388 54.2843 401.228 54.7234L401.123 73.1458L419.077 81.7336L418.951 103.952L359.131 103.61L359.259 81.1824L378.14 72.8Z" fill="#FCBEB7"/>
<path d="M359.133 103.616L359.26 81.1882L378.143 72.8057L378.151 71.3398C383.486 69.8667 389.561 66.2618 394.025 62.8906L359.133 103.616Z" fill="#F9AFAB"/>
<path d="M390.567 53.8459C394.031 53.8459 396.838 51.0384 396.838 47.5753C396.838 44.1121 394.031 41.3047 390.567 41.3047C387.104 41.3047 384.297 44.1121 384.297 47.5753C384.297 51.0384 387.104 53.8459 390.567 53.8459Z" fill="#F49795"/>
<path d="M348.172 42.1301C348.942 46.3454 350.253 50.1925 351.917 53.6203C355.234 53.4759 357.887 50.7489 357.906 47.3919C357.926 43.9287 355.135 41.1059 351.672 41.0861C350.38 41.0776 349.175 41.4629 348.172 42.1301Z" fill="#F49795"/>
<path d="M349.914 37.1627C349.886 42.0622 353.849 46.0708 358.749 46.0991C363.535 46.1261 367.47 42.3427 367.675 37.6005C370.359 36.0991 372.698 37.1938 373.433 37.623C373.579 42.3723 377.471 46.2054 382.262 46.2323C387.161 46.2606 391.169 42.2973 391.198 37.3979C391.226 32.4984 387.263 28.4897 382.364 28.4614C377.787 28.4359 373.988 31.892 373.485 36.3411C372.328 35.8014 370.135 35.1555 367.64 36.3127C367.189 31.8566 363.429 28.3538 358.851 28.3283C353.951 28.2999 349.943 32.2632 349.914 37.1627ZM374.589 37.3031C374.613 33.0453 378.097 29.6003 382.356 29.6244C386.614 29.6485 390.059 33.1328 390.035 37.3906C390.011 41.6484 386.526 45.0934 382.267 45.0693C378.008 45.0452 374.565 41.5609 374.589 37.3031ZM351.077 37.1682C351.101 32.909 354.586 29.4658 358.845 29.4899C363.104 29.5139 366.548 32.9983 366.524 37.2561C366.499 41.5153 363.015 44.9589 358.757 44.9348C354.496 44.9121 351.052 41.4275 351.077 37.1682Z" fill="white"/>
<path d="M358.761 43.5833C359.46 43.5876 360.033 43.0222 360.036 42.3225L360.05 39.9544C360.054 39.2546 359.489 38.684 358.789 38.6797C358.089 38.6755 357.517 39.2405 357.514 39.9402L357.5 42.31C357.496 43.0098 358.061 43.5805 358.761 43.5833Z" fill="#311643"/>
<path d="M381.893 43.71C382.593 43.7143 383.164 43.1493 383.168 42.4496L383.182 40.0797C383.187 39.38 382.622 38.809 381.922 38.8047C381.222 38.8005 380.651 39.3658 380.647 40.0655L380.633 42.4336C380.629 43.1348 381.192 43.7058 381.893 43.71Z" fill="#311643"/>
<path d="M372.762 58.0332C375.026 58.046 376.571 57.203 377.51 56.4339C378.693 55.4636 379.189 54.3998 379.209 54.3545C379.342 54.0627 379.214 53.7172 378.921 53.584C378.629 53.4509 378.287 53.5783 378.152 53.8686C378.085 54.0117 376.458 57.3732 371.792 56.8067C371.473 56.7684 371.184 56.9949 371.145 57.3136C371.107 57.6323 371.333 57.9213 371.652 57.961C372.04 58.0091 372.41 58.0318 372.762 58.0332Z" fill="#311643"/>
<path d="M332.651 426.679L330.218 436.551L304.234 444.548L308.067 426.539L332.651 426.679Z" fill="#FCBEB7"/>
<path d="M420.038 427.187L419.261 439.393L420.873 439.997L421.91 445.232L396.044 436.935L395.453 427.047L420.038 427.187Z" fill="#FCBEB7"/>
<path d="M284.206 448.269L305.343 439.326L304.232 444.544L330.215 436.547L330.173 443.979C330.159 446.592 328.778 448.953 326.622 450.272L324.356 456.636C324.16 457.186 323.637 457.553 323.054 457.548C322.295 457.544 321.684 456.925 321.688 456.167L321.712 452.02L303.954 457.441L286.022 457.339C283.415 457.325 281.313 455.198 281.328 452.591C281.335 450.703 282.469 449.004 284.206 448.269Z" fill="#3FB7A0"/>
<path d="M395.977 444.292L396.04 436.859L421.906 445.229L420.871 439.996L441.876 449.242C443.603 450.002 444.712 451.718 444.695 453.603C444.673 456.211 442.541 458.306 439.933 458.283L422.001 458.129L403.703 452.255L403.665 456.598C403.658 457.357 403.038 457.966 402.28 457.959C401.696 457.954 401.179 457.581 400.991 457.027L398.611 450.031C396.961 448.634 395.957 446.551 395.977 444.292Z" fill="#3FB7A0"/>
<path d="M417.528 178.556L426.864 219.121C429.559 230.837 430.579 242.874 429.893 254.875L420.034 427.188L395.448 427.048L385.971 248.107L332.648 426.69L308.062 426.549L352.767 178.188L417.528 178.556Z" fill="#3FB7A0"/>
<path d="M385.483 92.8013C381.118 92.7758 377.65 88.5532 375.32 84.2812L400.214 84.423C396.394 88.6469 391.17 92.8325 385.483 92.8013Z" fill="white"/>
<path d="M342.563 95.9472C345.687 89.7899 350.844 84.9017 357.158 82.1127L371.969 75.5703C371.964 76.2644 373.148 80.294 375.324 84.2827C377.654 88.5547 381.122 92.7773 385.487 92.8028C391.174 92.8353 396.398 88.6497 400.218 84.4245C404.095 80.1369 406.527 75.811 406.527 75.811L423.622 83.8508C430.619 87.1411 435.748 93.4244 437.573 100.939L447.36 141.282C448.956 147.86 447.036 154.796 442.282 159.616C434.41 156.803 419.632 150.955 419.632 150.955L417.528 178.547L352.767 178.179L337.086 106.745L342.563 95.9472Z" fill="#F9B162"/>
<path d="M384.81 98.8541C388.411 98.8739 392.08 97.8004 395.718 95.6602C398.606 93.9618 401.48 91.5906 404.262 88.6132C408.984 83.5594 411.871 78.3909 411.899 78.3385L410.939 77.8865C410.911 77.9375 408.11 82.9474 403.473 87.9078C400.762 90.8072 397.969 93.1103 395.17 94.7548C391.702 96.7931 388.218 97.816 384.814 97.7976C381.602 97.7792 378.714 96.6911 376.232 94.5622C374.223 92.8398 372.467 90.4349 371.012 87.4136C368.512 82.2223 367.848 77.443 367.841 77.3906L366.844 77.8312C366.873 78.0522 367.484 82.5097 370.049 87.8497C371.568 91.0083 373.413 93.534 375.534 95.3555C378.215 97.6572 381.335 98.8342 384.81 98.8541Z" fill="white"/>
<path d="M345.049 315.684C351.548 315.684 356.817 310.415 356.817 303.916C356.817 297.417 351.548 292.148 345.049 292.148C338.55 292.148 333.281 297.417 333.281 303.916C333.281 310.415 338.55 315.684 345.049 315.684Z" fill="#57C0AC"/>
<path d="M406.705 316.043C413.204 316.043 418.473 310.775 418.473 304.275C418.473 297.776 413.204 292.508 406.705 292.508C400.206 292.508 394.938 297.776 394.938 304.275C394.938 310.775 400.206 316.043 406.705 316.043Z" fill="#57C0AC"/>
<path d="M423.492 89.0767C423.468 93.2269 426.814 96.6121 430.965 96.6361C432.633 96.6461 434.175 96.1122 435.427 95.2C433.11 90.7311 429.504 87.0129 425.031 84.5625C424.073 85.8161 423.502 87.3798 423.492 89.0767Z" fill="#F9A64B"/>
<path d="M378.955 187.655L329.13 185.489C326.512 185.376 324.256 183.61 323.518 181.096L302.144 108.339C301.689 106.794 302.89 105.26 304.5 105.33L354.887 107.522C357.167 107.621 359.133 109.159 359.776 111.35L381.309 184.648C381.764 186.192 380.564 187.726 378.955 187.655Z" fill="#FFC226"/>
<path d="M313.427 135.617L325.985 136.518C326.913 136.585 327.627 137.364 327.611 138.293L328.859 138.378C329.671 138.433 330.327 139.06 330.419 139.869L330.566 141.177H330.572C331.501 141.194 332.241 141.961 332.225 142.891C332.212 143.572 331.79 144.179 331.154 144.429L328.335 145.531C328.332 146.964 327.494 148.263 326.189 148.858L317.423 152.85C316.15 153.43 314.737 153.637 313.351 153.45C310.235 153.028 307.723 150.685 307.083 147.607L306.555 145.061C305.985 142.317 306.851 139.471 308.852 137.511C310.076 136.31 311.716 135.631 313.427 135.617Z" fill="#FCBEB7"/>
<path d="M376.155 87.5214L367.46 108.43C366.97 109.609 366.257 110.676 365.38 111.54L363.846 113.051C363.49 113.403 362.996 113.197 362.994 112.697L362.984 110.544C362.979 109.313 363.232 108.056 363.722 106.876L372.416 85.9677C372.946 84.6957 374.211 84.0114 375.244 84.4406C376.275 84.8698 376.683 86.2495 376.155 87.5214Z" fill="#3FB7A0"/>
<path d="M364.814 99.9471L369.558 93.4908C370.17 92.6579 371.11 92.1311 372.14 92.0432L380.038 91.3734C381.113 91.2828 382.18 91.6341 382.99 92.3465L387.082 95.944C387.673 96.4638 388.174 97.0772 388.564 97.7585L393.564 105.794L441.178 144.714C445.874 148.554 446.253 155.6 441.992 159.92C437.755 164.216 430.75 163.966 426.83 159.38L386.702 112.427L378.236 107.155L371.965 107.335C370.507 107.377 369.228 106.37 368.928 104.944L368.585 104.534C367.996 103.827 367.76 102.889 367.949 101.987L368.317 100.219L366.283 101.516C365.986 101.706 365.616 101.74 365.289 101.61C364.626 101.343 364.391 100.524 364.814 99.9471Z" fill="#FCBEB7"/>
<path d="M419.629 150.949L402.047 130.375L418.903 160.489L419.629 150.949Z" fill="#F9A64B"/>
<path d="M378.939 187.656L349.633 195.548L351.269 186.453L378.939 187.656Z" fill="#57C0AC"/>
<path d="M345.203 91.6841C346.127 92.075 347.139 92.2929 348.205 92.2986C352.522 92.3227 356.042 88.8442 356.066 84.5269C356.07 83.9079 356.001 83.3045 355.869 82.7266C351.644 84.8385 347.994 87.9135 345.203 91.6841Z" fill="#F9A64B"/>
<path d="M434.427 161.408C438.442 161.408 441.697 158.153 441.697 154.138C441.697 150.122 438.442 146.867 434.427 146.867C430.411 146.867 427.156 150.122 427.156 154.138C427.156 158.153 430.411 161.408 434.427 161.408Z" fill="#F9AFAB"/>
<path d="M524.504 183.773H516.773V450.547H524.504V183.773Z" fill="#9FDBCF"/>
<path d="M577.151 458.286H464.139C462.064 458.286 460.383 456.603 460.383 454.529V454.311C460.383 452.236 462.064 450.555 464.139 450.555H577.151C579.226 450.555 580.908 452.238 580.908 454.311V454.529C580.908 456.603 579.225 458.286 577.151 458.286Z" fill="#9FDBCF"/>
<path d="M593.365 183.772H447.922L473.088 103.711H568.199L593.365 183.772Z" fill="#9FDBCF"/>
<path d="M524.504 183.775V230.061C521.892 230.948 519.303 231.829 516.773 232.689V183.773H524.504V183.775Z" fill="#57C0AC"/>
<path d="M456.837 155.414L584.47 155.475L586.317 161.356H454.969L456.837 155.414Z" fill="#57C0AC"/>
<path d="M103.908 391.336H36.9688V458.276H103.908V391.336Z" fill="#9FDBCF"/>
<path d="M36.968 391.336H0.09375V458.276H36.968V391.336Z" fill="#57C0AC"/>
<path d="M36.968 402.781H0.09375V404.742H36.968V402.781Z" fill="#3FB7A0"/>
<path d="M103.908 402.781H36.9688V404.742H103.908V402.781Z" fill="#3FB7A0"/>
<path d="M82.7445 414.33H58.1127C57.6453 414.33 57.2656 413.95 57.2656 413.483V413.433C57.2656 412.966 57.6453 412.586 58.1127 412.586H82.7445C83.212 412.586 83.5916 412.966 83.5916 413.433V413.483C83.5916 413.951 83.212 414.33 82.7445 414.33Z" fill="#3FB7A0"/>
</svg>
